<svg viewBox="0 0 640 360" xmlns="http://www.w3.org/2000/svg">
  <defs>
    <linearGradient id="bg3" x1="0" y1="0" x2="1" y2="1">
      <stop offset="0%" stop-color="#06B6D4"/>
      <stop offset="100%" stop-color="#6D28D9"/>
    </linearGradient>
  </defs>
  <rect width="640" height="360" fill="url(#bg3)"/>
  <circle cx="80" cy="300" r="100" fill="#ffffff" opacity="0.08"/>
  <circle cx="580" cy="60" r="80" fill="#ffffff" opacity="0.1"/>

  <rect x="230" y="110" width="180" height="140" rx="16" fill="#ffffff" opacity="0.16" stroke="#ffffff" stroke-width="3" stroke-opacity="0.4"/>
  <circle cx="270" cy="150" r="14" fill="#FBBF24"/>
  <path d="M240 235l45-45 30 30 20-20 45 45z" fill="#ffffff" opacity="0.5"/>

  <g fill="#ffffff">
    <path d="M470 90l7 18 18 7-18 7-7 18-7-18-18-7 18-7z"/>
    <path d="M170 150l5 13 13 5-13 5-5 13-5-13-13-5 13-5z"/>
    <path d="M500 220l6 15 15 6-15 6-6 15-6-15-15-6 15-6z"/>
  </g>

  <text x="40" y="330" font-family="Arial, sans-serif" font-size="22" font-weight="700" fill="#ffffff" opacity="0.9">Generative AI</text>
</svg>
