<svg viewBox="0 0 640 360" xmlns="http://www.w3.org/2000/svg">
  <defs>
    <linearGradient id="b9" x1="0" y1="0" x2="1" y2="1">
      <stop offset="0%" stop-color="#4C1D95"/><stop offset="100%" stop-color="#0891B2"/>
    </linearGradient>
  </defs>
  <rect width="640" height="360" fill="url(#b9)"/>
  <circle cx="560" cy="90" r="100" fill="#ffffff" opacity="0.08"/>
  <g transform="translate(300,170)">
    <rect x="-70" y="-30" width="140" height="100" rx="10" fill="#ffffff" opacity="0.9"/>
    <rect x="-50" y="-10" width="24" height="24" fill="#8B5CF6" opacity="0.6"/>
    <rect x="-14" y="-10" width="24" height="24" fill="#8B5CF6" opacity="0.6"/>
    <rect x="22" y="-10" width="24" height="24" fill="#8B5CF6" opacity="0.6"/>
    <rect x="-50" y="26" width="24" height="24" fill="#67E8F9" opacity="0.8"/>
    <rect x="-14" y="26" width="24" height="24" fill="#67E8F9" opacity="0.8"/>
    <circle cx="90" cy="-40" r="26" fill="#FBBF24"/>
    <circle cx="90" cy="-40" r="10" fill="none" stroke="#4C1D95" stroke-width="4"/>
    <line x1="90" y1="-56" x2="90" y2="-64" stroke="#4C1D95" stroke-width="4" stroke-linecap="round"/>
    <line x1="90" y1="-16" x2="90" y2="-24" stroke="#4C1D95" stroke-width="4" stroke-linecap="round"/>
    <line x1="106" y1="-40" x2="114" y2="-40" stroke="#4C1D95" stroke-width="4" stroke-linecap="round"/>
    <line x1="66" y1="-40" x2="74" y2="-40" stroke="#4C1D95" stroke-width="4" stroke-linecap="round"/>
  </g>
  <text x="40" y="330" font-family="Arial, sans-serif" font-size="24" font-weight="700" fill="#ffffff">AI cho SME</text>
</svg>
